<svg xmlns="http://www.w3.org/2000/svg" viewBox="0 0 192 192" fill="none">
  <path d="M160 161C160 173.703 149.703 184 137 184C124.297 184 114 173.703 114 161L114 31C114 18.297 124.297 8 137 8C149.703 8 160 18.297 160 31L160 161Z" fill="#F9AB00"/>
  <path d="M78 161C78 173.703 67.703 184 55 184C42.297 184 32 173.703 32 161C32 148.297 42.297 138 55 138C67.703 138 78 148.297 78 161Z" fill="#E37400"/>
  <path d="M78 96C78 108.703 67.703 119 55 119C42.297 119 32 108.703 32 96L32 31C32 18.297 42.297 8 55 8C67.703 8 78 18.297 78 31L78 96Z" fill="#E37400"/>
</svg>
