<svg xmlns="http://www.w3.org/2000/svg" viewBox="0 0 192 192" fill="none">
  <path d="M12 136.5L52.5 31.5L128.25 68.25L87.75 173.25L12 136.5Z" fill="#FBBC04"/>
  <path d="M180 136.5C180 161.077 159.853 181 135 181C110.147 181 90 161.077 90 136.5C90 111.923 110.147 92 135 92C159.853 92 180 111.923 180 136.5Z" fill="#4285F4"/>
  <path d="M52.5 31.5L128.25 68.25L142.5 31.5C150.75 11.25 138.75 -2.25 120 11.25L52.5 31.5Z" fill="#34A853"/>
  <circle cx="135" cy="136.5" r="28" fill="#4285F4"/>
  <path d="M12 136.5L52.5 31.5L67.5 68.25L27 136.5C21.75 151.5 7.5 151.5 12 136.5Z" fill="#EA4335"/>
</svg>
