<svg xmlns="http://www.w3.org/2000/svg" viewBox="0 0 80 80" fill="none">
  <path d="M56.4 13C51.8 13 47.6 16.4 43.4 23.1C40 17.4 36.5 13.8 32.1 13.1C23.7 11.7 16.7 21.1 12.3 32.1C7.4 44.5 6 58.6 12.2 64.6C15.4 67.7 19.8 68.1 24.2 65.5C28.1 63.2 31.7 58.6 35.4 51.5L40 42.4L44.6 51.5C48.3 58.6 51.9 63.2 55.8 65.5C60.2 68.1 64.6 67.7 67.8 64.6C74 58.6 72.6 44.5 67.7 32.1C63.6 21.7 57.2 13 56.4 13ZM24.4 57.9C22.6 58.9 21.2 58.6 20.2 57.7C17.4 54.9 18.4 45.1 22.3 35.2C25.4 27.2 29.6 21.3 32.7 21.8C34.6 22.1 36.8 25.3 39.2 30.5C35.9 37.1 32.4 44.6 29 51.3C27.3 54.5 25.8 57.1 24.4 57.9ZM59.8 57.7C58.8 58.6 57.4 58.9 55.6 57.9C54.2 57.1 52.7 54.5 51 51.3C47.6 44.6 44.1 37.1 40.8 30.5C43.2 25.3 45.4 22.1 47.3 21.8C50.4 21.3 54.6 27.2 57.7 35.2C61.6 45.1 62.6 54.9 59.8 57.7Z" fill="url(#meta_gradient)"/>
  <defs>
    <linearGradient id="meta_gradient" x1="6" y1="40" x2="74" y2="40" gradientUnits="userSpaceOnUse">
      <stop stop-color="#0081FB"/>
      <stop offset="0.3" stop-color="#0064E0"/>
      <stop offset="0.6" stop-color="#0052CC"/>
      <stop offset="1" stop-color="#0047B3"/>
    </linearGradient>
  </defs>
</svg>
