<svg xmlns="http://www.w3.org/2000/svg" viewBox="0 0 192 192" fill="none">
  <path d="M96 16C51.8 16 16 51.8 16 96C16 140.2 51.8 176 96 176C140.2 176 176 140.2 176 96C176 51.8 140.2 16 96 16ZM96 152C65.1 152 40 126.9 40 96C40 65.1 65.1 40 96 40C126.9 40 152 65.1 152 96C152 126.9 126.9 152 96 152Z" fill="#458CF5"/>
  <path d="M96 56C74 56 56 74 56 96C56 118 74 136 96 136C118 136 136 118 136 96C136 74 118 56 96 56ZM96 116C85 116 76 107 76 96C76 85 85 76 96 76C107 76 116 85 116 96C116 107 107 116 96 116Z" fill="#458CF5"/>
  <path d="M132 148L148 132L176 160L160 176L132 148Z" fill="#458CF5"/>
</svg>
