<svg xmlns="http://www.w3.org/2000/svg" viewBox="0 0 109.5 124.5" fill="none">
  <path d="M95.9 23.9C95.8 23.3 95.3 22.9 94.8 22.9C94.3 22.9 84.8 22.6 84.8 22.6C84.8 22.6 76.2 14.1 75.3 13.2C74.4 12.3 72.7 12.6 72 12.8C72 12.8 70.1 13.4 66.9 14.4C66.4 12.8 65.6 10.9 64.5 9C61.4 3.5 56.8 0.5 51.3 0.5C51 0.5 50.7 0.5 50.4 0.5C50.1 0.1 49.7 0 49.4 0C44.5 0 39.7 3.7 35.7 10.4C32.8 15.3 30.5 21.5 29.9 26.2C23.6 28.2 19.2 29.5 19.1 29.6C16 30.5 15.9 30.6 15.5 33.5C15.2 35.7 7.5 93.8 7.5 93.8L72.6 105L102.9 97.6C102.9 97.6 96 24.5 95.9 23.9ZM63 15.7C60.5 16.5 57.7 17.4 54.7 18.4C54.7 14.8 54.2 9.7 52 5.9C56.9 6.9 59.7 12.4 63 15.7ZM50.6 19.7C45.1 21.5 39.1 23.4 33 25.3C34.5 19.6 37.3 14 40.9 10C42.3 8.5 44.3 6.8 46.6 5.8C49 10 50.6 15.6 50.6 19.7ZM41.3 1.5C43 1.5 44.5 1.9 45.8 2.7C43.3 3.9 40.9 5.7 38.7 8.1C33.8 13.3 30.1 21.3 28.7 28.8C23.7 30.4 18.9 31.9 14.5 33.3C17.2 18.4 28.1 1.9 41.3 1.5Z" fill="#95BF47"/>
  <path d="M94.8 22.9C94.3 22.9 84.8 22.6 84.8 22.6C84.8 22.6 76.2 14.1 75.3 13.2C75 12.9 74.5 12.7 74 12.6L72.6 105L102.9 97.6C102.9 97.6 96 24.5 95.9 23.9C95.8 23.3 95.3 22.9 94.8 22.9Z" fill="#5E8E3E"/>
  <path d="M51.3 40.8L47.5 53.7C47.5 53.7 43.2 51.4 38.1 51.7C30.7 52.2 30.6 57 30.7 58.6C31.2 64.4 47.9 65.7 48.8 80.8C49.5 92.8 42.3 101 31.5 101.7C18.6 102.5 11.5 95 11.5 95L14.2 84.7C14.2 84.7 21.4 90.2 27.2 89.8C31 89.5 32.4 86.3 32.2 84C31.6 76.5 18 77.1 17.2 63.4C16.5 51.7 24.2 39.9 41.4 38.8C47.9 38.4 51.3 40.8 51.3 40.8Z" fill="white"/>
</svg>
